<svg width="145" height="28" viewBox="0 0 145 28" fill="none" xmlns="http://www.w3.org/2000/svg">
<g clip-path="url(#clip0_1001_6759)">
<path fill-rule="evenodd" clip-rule="evenodd" d="M139.347 10.7572C136.424 10.0975 135.402 10.024 135.402 8.86083C135.402 7.78108 136.848 7.4445 137.682 7.4445C139.033 7.4445 140.621 7.75833 142.241 8.59133L143.419 5.78666C141.762 4.87958 139.629 4.50333 137.576 4.50333C133.544 4.50333 130.84 6.13783 130.729 9.32575C130.611 12.2313 132.977 13.321 135.15 13.7702C137.244 14.2018 139.369 14.5722 139.411 15.8171C139.451 16.9651 138.42 17.4562 136.472 17.4562C134.667 17.4562 132.992 16.8764 131.277 16.1595L130.278 19.2062C132.245 20.0457 134.245 20.5065 136.308 20.5065C139.172 20.5065 141.259 20.0608 142.799 18.6165C143.866 17.6237 144.215 16.4261 144.215 15.2862C144.215 12.8759 142.714 11.5179 139.347 10.7572Z" fill="#4B286D"/>
<path fill-rule="evenodd" clip-rule="evenodd" d="M119.24 4.94841V14.6323C119.24 15.3912 119.24 15.6012 119.192 15.8958C119.057 16.8187 118.158 17.3542 116.732 17.3722C115.676 17.3559 114.903 17.0438 114.542 16.4914C114.36 16.2062 114.273 15.6969 114.273 14.8837V4.94841H109.782V15.4531C109.782 16.9085 109.976 17.5642 110.631 18.3942C111.717 19.754 113.831 20.4662 116.742 20.4662C116.772 20.4662 116.803 20.4662 116.835 20.4662C116.852 20.4662 116.878 20.4662 116.898 20.4662C120.798 20.4662 122.807 18.9437 123.391 17.5227C123.682 16.8338 123.705 16.5066 123.705 15.1147V4.94841H119.24Z" fill="#4B286D"/>
<path fill-rule="evenodd" clip-rule="evenodd" d="M104.463 17.1827H97.8606V4.94841H93.5282V20.1903H104.463V17.1827Z" fill="#4B286D"/>
<path fill-rule="evenodd" clip-rule="evenodd" d="M85.8229 7.91233V4.94841H75.2576V20.1903H85.8229V17.0987H79.5381V13.7206H84.7659V10.7613H79.5381V7.91233H85.8229Z" fill="#4B286D"/>
<path fill-rule="evenodd" clip-rule="evenodd" d="M69.1122 7.95666V4.94841H55.8186V7.95666H60.3102V20.1903H64.6164V7.95666H69.1122Z" fill="#4B286D"/>
<path fill-rule="evenodd" clip-rule="evenodd" d="M57.848 0.77525L32.6573 5.79075V7.546L32.739 7.525C49.3792 3.48133 57.848 1.05058 57.9168 1.03133C58.0113 1.00742 58.0434 0.933917 58.0306 0.872083C58.0178 0.80675 57.9495 0.753667 57.848 0.77525Z" fill="#4B286D"/>
<path fill-rule="evenodd" clip-rule="evenodd" d="M37.3666 0.293998C36.1416 0.364582 33.8748 2.17758 32.6311 3.25617C27.6739 7.54308 23.9896 11.4852 21.3097 15.6135C15.7237 18.6037 8.603 21.6802 1.53067 24.0829L1.36092 24.1407L0 27.8057L0.777 27.5047C5.27508 25.7915 12.7826 22.5721 19.5889 18.9933C19.2051 20.0153 19.012 20.9539 19.012 21.8114C19.012 22.4519 19.1187 23.0422 19.3334 23.5871C19.7622 24.6616 20.6039 25.4788 21.7741 25.9443C23.5153 26.6391 25.8924 26.6525 28.6038 25.8317C35.5308 23.73 43.7465 17.2865 45.5356 16.0049L45.6021 15.9559C45.6727 15.9063 45.6779 15.8293 45.647 15.778C45.6085 15.7191 45.5268 15.7051 45.4586 15.7442L45.3711 15.799C43.4507 16.9464 34.1232 22.4857 28.0595 24.1132C24.9725 24.9422 22.6188 24.4877 21.7303 23.2464C21.4223 22.8229 21.2742 22.2851 21.2742 21.658C21.2742 20.4382 21.8482 18.8807 22.9571 17.1529C23.9773 16.5702 24.9282 16.0032 25.7862 15.4671C31.7024 12.1415 38.5175 5.677 38.8068 1.7325C38.8086 1.70566 38.8086 1.67475 38.8086 1.64442C38.8086 1.30608 38.6616 0.953165 38.4038 0.694165C38.1267 0.411832 37.7603 0.270665 37.3666 0.293998ZM36.7074 2.17583C37.0965 1.92558 37.2085 2.08133 37.0947 2.36483C36.9081 2.81692 36.0564 5.544 29.7138 10.7497C28.0595 12.1053 26.8818 12.8683 24.5006 14.2771C28.4013 8.80833 34.0982 3.87158 36.7074 2.17583Z" fill="#66CC00"/>
<path fill-rule="evenodd" clip-rule="evenodd" d="M32.5757 5.80708L6.07249 11.5039L5.04816 14.2584L32.6573 7.546L32.7005 7.5355V5.78141L32.5757 5.80708Z" fill="#4B286D"/>
</g>
<defs>
<clipPath id="clip0_1001_6759">
<rect width="145" height="28" fill="white"/>
</clipPath>
</defs>
</svg>
