<svg width="22px" height="22px" viewBox="0 0 22 22" version="1.1" xmlns="http://www.w3.org/2000/svg"><title>Search Button</title><g stroke="none" stroke-width="1" fill="none" fill-rule="evenodd"><g transform="translate(-1253.000000, -102.000000)" fill="#ffffff" fill-rule="nonzero" stroke="#ffffff" stroke-width="0.4"><g transform="translate(1254.000000, 103.000000)"><path d="M7.98342692,-5.42485756e-13 C12.3855824,-5.42485756e-13 15.9668538,3.58127139 15.9668538,7.98342692 C15.9668538,10.0604098 15.1696447,11.9546597 13.8651426,13.3762603 L19.8976399,19.4084506 C20.0328677,19.5436817 20.0328677,19.7635189 19.8976399,19.89875 C19.8303727,19.9660188 19.7416078,20 19.6528428,20 C19.5640779,20 19.4753129,19.9660188 19.4073523,19.89875 L13.375245,13.866074 C11.9537578,15.1700241 10.0599154,15.9668538 7.98342692,15.9668538 C3.58127139,15.9668538 6.22095213e-13,12.3855824 6.22095213e-13,7.98342692 C6.22095213e-13,3.58127139 3.58127139,-5.42485756e-13 7.98342692,-5.42485756e-13 Z M7.98342692,0.939226696 C4.0987853,0.939226696 0.939226696,4.0987853 0.939226696,7.98342692 C0.939226696,11.8680685 4.0987853,15.0276271 7.98342692,15.0276271 C9.8654272,15.0276271 11.577241,14.2860371 12.8420392,13.0796861 C12.8555066,13.0243583 12.8849322,12.9724207 12.9282051,12.9291467 C12.971478,12.8858728 13.0234143,12.8564465 13.0784696,12.8408679 C14.285649,11.5781367 15.0276271,9.86591962 15.0276271,7.98342692 C15.0276271,4.0987853 11.8680685,0.939226696 7.98342692,0.939226696 Z"/></g></g></g></svg>